<svg width="32" height="32" viewBox="0 0 32 32" fill="none" xmlns="http://www.w3.org/2000/svg">
<g clip-path="url(#clip0_5_5)">
<path fill-rule="evenodd" clip-rule="evenodd" d="M16 0C24.8368 0 32 7.344 32 16.4048C32 23.6512 27.4208 29.7984 21.0672 31.9696C20.256 32.1312 19.968 31.6192 19.968 31.1824C19.968 30.6416 19.9872 28.8752 19.9872 26.68C19.9872 25.1504 19.4752 24.152 18.9008 23.6432C22.464 23.2368 26.208 21.8496 26.208 15.5488C26.208 13.7568 25.5872 12.2944 24.56 11.1456C24.7264 10.7312 25.2752 9.0624 24.4032 6.8032C24.4032 6.8032 23.0624 6.3632 20.008 8.4848C18.703 8.12105 17.3548 7.93537 16 7.9328C14.6463 7.93524 13.2991 8.12093 11.9952 8.4848C8.9376 6.3632 7.5936 6.8032 7.5936 6.8032C6.7248 9.0624 7.2736 10.7312 7.4384 11.1456C6.416 12.2944 5.7904 13.7568 5.7904 15.5488C5.7904 21.8336 9.5264 23.2416 13.08 23.656C12.6224 24.0656 12.208 24.7888 12.064 25.8496C11.152 26.2688 8.8352 26.9936 7.408 24.4864C7.408 24.4864 6.5616 22.9104 4.9552 22.7952C4.9552 22.7952 3.3952 22.7744 4.8464 23.792C4.8464 23.792 5.8944 24.296 6.6224 26.192C6.6224 26.192 7.5616 29.12 12.0128 28.128C12.0208 29.4992 12.0352 30.792 12.0352 31.1824C12.0352 31.616 11.7408 32.1232 10.9424 31.9712C4.584 29.8032 0 23.6528 0 16.4048C0 7.344 7.1648 0 16 0Z" fill="white"/>
</g>
<defs>
<clipPath id="clip0_5_5">
<rect width="32" height="32" fill="white"/>
</clipPath>
</defs>
</svg>
