<svg width="44" height="40" viewBox="0 0 44 40" fill="none" xmlns="http://www.w3.org/2000/svg">
<g clip-path="url(#clip0_3_2)">
<path fill-rule="evenodd" clip-rule="evenodd" d="M44 40H34.2754V25.9384C34.2754 22.2578 32.7543 19.7451 29.4092 19.7451C26.8507 19.7451 25.4278 21.4407 24.7655 23.0749C24.5171 23.6614 24.556 24.4784 24.556 25.2955V40H14.9219C14.9219 40 15.0461 15.0913 14.9219 12.8271H24.556V17.0916C25.1251 15.227 28.2036 12.5658 33.1164 12.5658C39.2114 12.5658 44 16.4744 44 24.8908V40ZM5.1792 9.42819H5.11713C2.01271 9.42819 0 7.35095 0 4.71793C0 2.03367 2.0722 0 5.23871 0C8.40263 0 10.3481 2.02857 10.4102 4.71027C10.4102 7.34329 8.40262 9.42819 5.1792 9.42819ZM1.1098 12.8271H9.68579V40H1.1098V12.8271Z" fill="white"/>
</g>
<defs>
<clipPath id="clip0_3_2">
<rect width="44" height="40" fill="white"/>
</clipPath>
</defs>
</svg>
