<svg width="48" height="48" viewBox="0 0 48 48" fill="none" xmlns="http://www.w3.org/2000/svg">
<path fill-rule="evenodd" clip-rule="evenodd" d="M4 0H33.1558C36.2773 0 38.9217 1.38225 40.914 3.53057C43.5085 6.32779 44.9974 10.4236 44.9974 14.4578C44.9974 19.0802 43.3852 23.2825 40.914 26.1758C38.799 28.6515 36.0556 30.1687 33.1558 30.1687H25.9687L40.914 48H26.5402L15.2701 34.6026L6.36526 45.3481L4 48V29.1083C4 23.518 8.65511 18.1205 13.4733 18.1205L23.0347 17.2376L23.01 17.1618L23.244 17.326C20.7233 20.8354 20.3824 22.2804 21.6051 23.9649C22.2068 19.1215 31.9147 8.37214 36.8934 10.522L31.9147 12.5302L36.0012 11.9868L30.7944 16.1212L32.4333 21.5549L28.8863 18.3655L23.8458 23.9649L25.9612 17.326C23.1198 20.7989 21.6051 27.3135 22.7462 27.9103C24.0793 28.607 25.843 27.6059 30.7944 22.996L29.0105 21.8855L25.0695 25.3351L28.8863 20.9171L34.7982 24.5315L33.5537 20.35C38.0444 14.7441 40.3137 11.7234 38.5318 9.19903C36.8934 7.66342 34.7675 8.18113 30.6078 10.522L28.7205 4.52126L25.9612 12.8845L25.8628 12.9035L25.9627 12.8619L13.4733 11.9518C9.1451 11.9518 4 6.45783 4 0ZM29.6746 4.37953L30.6078 3.97791L31.6866 7.63977L30.6078 8.04138L29.6746 4.37953ZM31.1472 9.6243L31.313 8.51391L32.2052 9.03365L31.1472 9.6243ZM31.3338 23.4215L31.1264 24.6972L32.2052 23.9649L31.3338 23.4215ZM36.0012 13.4751L32.4333 16.8063L32.8069 17.9167L36.0012 13.4751Z" fill="white"/>
</svg>
